<?xml version="1.0" encoding="UTF-8"?>
<!DOCTYPE svg PUBLIC "-//W3C//DTD SVG 1.1//EN" "http://www.w3.org/Graphics/SVG/1.1/DTD/svg11.dtd">
<!-- Creator: CorelDRAW 2021 (64-Bit) -->
<svg xmlns="http://www.w3.org/2000/svg" xml:space="preserve" width="3508px" height="2480px" version="1.1" style="shape-rendering:geometricPrecision; text-rendering:geometricPrecision; image-rendering:optimizeQuality; fill-rule:evenodd; clip-rule:evenodd"
viewBox="0 0 3508 2480.4"
 xmlns:xlink="http://www.w3.org/1999/xlink"
 xmlns:xodm="http://www.corel.com/coreldraw/odm/2003">
 <defs>
  <style type="text/css">
   <![CDATA[
    .fil1 {fill:#212771}
    .fil5 {fill:#D6635C}
    .fil0 {fill:#EC1F24}
    .fil3 {fill:#F0918F}
    .fil4 {fill:#FBF570}
    .fil2 {fill:#FEEE05}
   ]]>
  </style>
 </defs>
 <g id="Layer_x0020_1">
  <metadata id="CorelCorpID_0Corel-Layer"/>
  <g id="_2544001280000">
   <path class="fil0" d="M1626.5 1514.95l0 231.33c0,39.22 49.46,52.27 90.72,48.48l0.09 -115.61c-0.26,-42.74 79.44,-43.31 79.39,-1.19l1.08 116.69c24.15,1.12 35.39,0.37 51.49,-10.54 8.42,-5.7 25.74,-22.43 26.19,-36.53 1.27,-40.29 -0.03,-82.98 -0.03,-123.56 0,-41.16 0.03,-82.32 0.07,-123.48 0.02,-33.85 -44.04,-63.58 -59.83,-66.39l0.58 160.72c-25.53,-0.09 -19.99,5.14 -20.04,-25.98 -0.05,-27.96 4.82,-38.02 -13.57,-38.15 -23.3,-0.17 -13.7,21.89 -14.59,64.13 -34.7,0.02 -27.76,5.37 -28.19,-23.58 -0.45,-29.89 3.23,-37.07 -11.08,-38.83 -10.35,-1.28 -14.12,0.16 -20.12,4.21 -7.16,56.9 11.43,59.24 -19.26,58.29l-3.68 -161.21c-14.84,5.86 -31.65,19.88 -40.09,29.27 -5.01,5.59 -10.8,12.44 -14.52,20.1 -5.74,11.79 -4.61,17.27 -4.61,31.83z"/>
   <path class="fil0" d="M1752.17 1297.29c-3.58,-4.76 -10.84,-11.38 -15.68,-16.57l-114.22 -121.9c-6.12,6.56 4.92,16.58 -28.23,44.05 -14.51,12.02 -26.2,18.79 -36.56,35.44 -15.15,24.34 -2.45,31.58 12,47.55 5.51,6.1 29.53,35.27 34.59,37.54 12.06,-5.49 24.83,-31.04 33.92,-44.27 7.68,-11.19 26.17,-30.97 43.98,-33.91l51.37 55.42c11.69,12.36 9.86,6.11 -22.26,40.88 -9.65,10.44 -19.33,20.46 -29,30.91 -7.1,7.67 -55.81,57.94 -57.36,62.21l10.69 14.01c15.18,-15.54 112.14,-123.9 117.28,-126.46l57.29 62.38c9.38,10.32 19.07,21.13 28.78,31.2 6.29,6.54 24.89,29.33 30.2,31.67 3.81,-2 9.68,-9.61 10.82,-14 -7.93,-9.52 -19.49,-21.03 -28.37,-30.39l-87.13 -93.06c1.41,-5.02 36.24,-41.63 42.79,-48.69 5.47,-5.9 10.41,-10.69 14.73,-16.16 42.27,6.14 59.87,73.96 79.52,78.09l50.81 -57.09c4.71,-6.87 -1.69,-22.19 -4.8,-27.49 -13,-22.1 -39.67,-34.15 -54.34,-53.26 -6.88,-8.96 -6.69,-13.72 -9.08,-27.06l-98.53 104.08c-10.87,11.3 -22.46,24.4 -33.21,34.88z"/>
   <path class="fil1" d="M1761.62 1011.9l-0.02 95.99c8.32,-0.42 11.59,-2.64 22.13,-1.19 18.47,2.54 40.63,18.78 61.89,10.96l0.03 -96.02c-17.94,-0.45 -12.31,4.97 -42.59,-5.08 -11.69,-3.88 -29.4,-10.59 -41.44,-4.66z"/>
   <path class="fil1" d="M1659.03 1021.7l0 96.4c34.36,6.86 52.6,-19.5 83.68,-9.88 0.5,-9.36 1,-93.65 -0.37,-95.95 -4.86,-8.16 -34.01,2.09 -40.03,4.11 -18.85,6.34 -21.32,6.41 -43.28,5.32z"/>
   <path class="fil2" d="M1776.16 955.41l6.04 -19.27c0.11,-0.29 0.22,-0.6 0.33,-0.9 5.7,-15.11 4.13,-12.38 17.3,-15.71 3.68,-0.94 10.37,-2.68 12.84,-2.95l2.58 0.53c2.08,-2.09 1.73,-1.84 5.46,-2.82 3.29,-0.87 4.18,-1.01 7.49,-1.06l4.15 -2.2c1.07,-0.32 3.31,-0.79 4.73,-1.18 3.66,-1.02 6.12,-1.87 10.01,-1.74l4.45 -0.5c-2.01,-4.15 1.85,0.42 -1.82,-2.42l-2.53 -1.3c-5.69,0.05 -16.28,-2.22 -20.18,-5.86 -8.55,-1.93 -16.08,-3.88 -24.26,-6.03 -13.43,-3.52 -13.56,-0.14 -18.25,-12.93 -3.05,-8.31 -13.95,-41.38 -17.42,-45.94 -7.72,6.24 -16.35,52.08 -24.44,55.72 -2.69,1.22 -12.95,3.49 -16.09,4.31 -5.38,1.4 -10.97,3.29 -15.96,4.24 -7.04,1.34 -28.23,6 -31.78,8.65l30.35 8.52c5.24,1.4 11.33,3.03 16.26,4.21 21.22,5.08 19.71,0.27 29.43,30.96l11.03 29.48c4.05,-1.77 2.5,-1.57 5.92,-10.88 1.84,-4.99 2.9,-8.13 4.36,-12.93z"/>
   <path class="fil1" d="M1861.06 1054.68c-0.02,17.87 1.32,68.11 -1.06,76.07 -22.04,9.67 -63.11,-18.83 -93.73,0.96 -8.94,5.77 -11.24,4.26 -26.85,3.99 -7.4,-0.13 -6.1,-0.95 -11.45,-3.62 -20.01,-10 -59.36,3.23 -96.41,1.82l-1.43 -103.93 -12.55 -0.18c-1.16,21.29 0.54,46.34 0.81,68.04 0.68,55.38 -10.73,53.77 70.83,44.59 52.4,-5.89 15.23,8.76 70.75,6.18 19.42,-0.91 3.16,-18.74 63.87,-6.72 55.32,10.96 49.66,-4.59 49.77,-23.67 0.05,-8.8 0.08,-17.58 0.14,-26.38 0.12,-17.58 0.1,-35.24 0.39,-52.81 0.05,-3.1 1.14,-8.58 -1.24,-9.76 -2.31,-1.14 -9.63,-0.89 -10.92,0.42 -1.9,1.92 -0.92,20.64 -0.92,25z"/>
   <path class="fil0" d="M1942.07 793.77c-2.38,3.15 -3.15,2.73 -5.95,4.54 -3.52,2.29 -0.79,1.67 -6.54,2.88 1.22,-4.07 9.77,-17.54 13.79,-20.19 2.59,-6.42 9.21,-11.36 11.71,-18.79l-7.81 -8.11c-6.84,8.75 -13.01,19.13 -19.42,28.54 -5.94,8.72 -15.03,20.66 -18.87,28.72l8.74 9.49 29.98 -18.3c1.75,-1.14 2.99,-1.98 5.2,-3.16l5.73 -0.83 -23.57 39.17c1.87,3.61 5.73,6.47 8.66,9.02l57.23 -37.79c-6.54,-13.61 -13.52,-4.19 -26.68,4.63 -4.37,2.94 -14.78,10.55 -19.01,12.03l24.08 -38.13c-1.87,-3.98 -6.56,-8.09 -9.7,-10.28 -3.3,1.06 -24.32,13.95 -27.57,16.56z"/>
   <path class="fil0" d="M1784.62 686.7l-10.04 0c-8.32,4.91 -16.01,5.71 -16.24,19.18 -0.34,20.39 21.48,19.82 28.84,25.3 4.88,3.64 3.7,10.03 -0.03,12.85 -3.87,2.92 -11.3,2.76 -15.29,0.27 -4.51,-2.81 -3.76,-6.57 -5.98,-11.64 -12.05,-0.86 -13.39,-0.59 -9.76,10.31 7.39,22.16 44.02,19.48 46.31,-3.48 2.83,-28.43 -29.15,-21.87 -31.94,-32.64 -1.25,-4.83 1.36,-7.17 5.15,-7.87 13.27,-2.45 11.78,4.18 15.41,10.09l11.44 0.19c0.24,-6.4 -1.73,-11.56 -4.66,-14.97 -4.77,-5.55 -9.49,-5.29 -13.21,-7.59z"/>
   <path class="fil0" d="M1683.17 743.03l-9.94 3.04c4.82,31.66 60.04,18.18 45.48,-13.48 -7.68,-16.7 -24.13,-9.86 -34.77,-13.32 -13.78,-4.49 5.8,-25.01 16.2,-6.49l10.99 -2.84c-4.29,-31.96 -60.66,-11.41 -39.46,15.94 10.24,13.22 31.49,4.26 35.9,12.03 4.5,7.95 -3.1,13.13 -8.9,14.04 -9.83,1.53 -11.43,-4.29 -15.5,-8.92z"/>
   <path class="fil0" d="M1605.02 727l12.69 22.94c-4.19,3.99 -14.89,10.32 -20.24,11.52 -3.91,-6.2 -9.34,-14.6 -12.14,-21.21 -4.92,0.64 -7.51,2.52 -10.74,5.18l33.79 58.03c4.42,-1.3 7.35,-3.35 9.98,-5.28 -2.13,-9.21 -12.25,-17.43 -13.44,-26.78 6,-2.78 13.76,-9.29 19.69,-10.45l14.26 24.04c3.91,-0.63 6.34,-2.66 9.93,-4.29 -0.96,-6.19 -29.05,-52.76 -33.95,-59l-9.83 5.3z"/>
   <path class="fil0" d="M1568.95 845.01l3.5 -5.34c4.38,-4.61 9.97,-9.63 11.88,-13.93 -2.68,-4.21 -2.52,-3.66 -6.63,-5.97 -3.92,2.47 -5.14,5.81 -7.33,8.2l-3.21 2.56c-3.18,2 -7.22,7.85 -11.04,11.81 -5.36,-1.48 -9.31,-7.01 -13.68,-9.97 2.03,-6.86 13.67,-17.29 18.02,-23.41 -1.35,-2.22 -4.98,-6.15 -8.2,-7.02l-7.14 9.19c-0.15,0.18 -0.37,0.45 -0.53,0.63l-8.7 9.24c-1.12,1.07 -1.6,1.58 -2.55,2.57l-4.05 -2.22c-0.21,-0.15 -0.48,-0.37 -0.68,-0.52l-7.08 -7.07 3.39 -4.8c0.24,-0.26 0.96,-0.99 1.19,-1.25 2.27,-2.58 1.62,-2.97 6.03,-5.52l9.53 -12.26c-1.72,-3.5 -4.38,-5.95 -8.33,-7.11l-28.09 31.78c2.19,3.85 30.79,27.8 38.38,34.42 3.94,3.43 8.34,8.98 13.92,10.06 3.14,-5.18 7.93,-9.05 11.4,-14.07z"/>
   <path class="fil0" d="M2026.28 905.95l1.72 -1.25c5.44,-2.88 11.4,-3.67 13.7,-5.84 -0.33,-2.81 -1.26,-6.93 -3.73,-9.33l-23 8.24c-8.49,1.41 -16.7,7.91 -24.96,7.37 -8.91,-0.57 -13.47,-13.56 -6.2,-19.72 7.84,-6.64 36.52,-12.99 46.53,-19.24l-3.41 -10.2c-5.62,0.19 -28.54,9.87 -35.09,12.42 -11.91,4.63 -24.48,8.19 -23.83,24.47 0.51,12.99 9.05,25.87 22.93,24.82 9.5,-0.71 26.76,-8.46 35.34,-11.74z"/>
   <path class="fil0" d="M1464.24 902.45l9.11 3.61c3.97,-4.58 5.89,-15.12 9.76,-21.72l1.09 -1.67c4.64,2.66 15.08,21.22 18.05,25.7 3.09,4.64 5.27,8.19 8.46,13.17 3.2,5 6.57,7.59 14.25,8.45 2.31,-3.1 16.94,-39.62 17.85,-44.37l-10.26 -3.77c-3.6,7.5 -8.4,23.92 -12.39,29.96 -3.81,-2.82 -14.36,-20.79 -17.88,-26.24 -9.39,-14.51 -11.23,-21.92 -23.41,-23.08 -2.89,9.11 -14.35,32.81 -14.63,39.96z"/>
   <path class="fil0" d="M1860.96 715.85c-1.03,1.45 -0.13,0.58 -1.74,1.89 -11.35,9.26 -6.14,6.99 -11.86,12.09 -0.32,2.82 0.96,-0.55 -0.63,2.96 -0.93,2.06 -0.51,1.01 -1.82,1.77 -0.15,2.28 0.21,0.73 -0.58,3.1 -0.06,0.19 -0.45,0.93 -0.51,0.76 -0.05,-0.17 -0.41,0.45 -0.61,0.68 -0.05,0.59 0.49,0.36 -0.46,2.65 -1.1,2.64 -0.31,0.75 -1.78,2.07l0.02 19.99c1.93,0.62 1.54,-1.34 1.08,2.62 1.77,0.36 1.24,-1.44 1.13,2.47 3.04,1.81 2.19,0.61 4.07,4.68 13.17,11.8 30.19,7.11 38.06,-4.17 -1.36,-4.02 -4.48,-6.41 -7.98,-8.46 -4.78,3.54 -12.32,12.1 -21.15,4.42 -11,-9.57 2.7,-39.37 15.48,-41.21 11.85,-1.72 15.19,6.43 14.7,16.98l12.04 1.87c1.27,-7.67 0.66,-8.89 -0.32,-15.16 -1.79,-1.12 -1.74,2.14 -1.31,-3.05 -1.77,-0.54 -1.25,1.95 -1.6,-2 -1.93,0.11 -1.59,0.57 -1.11,-1.29 -2.18,0.62 -1.6,0.85 -1,-1.39 -2.09,0.48 -1.74,0.93 -1.26,-1.14 -2.15,0.54 -1.86,1.06 -1.36,-1.03l-3.9 -3.25c-4.06,0.33 -2.2,0.6 -2.61,-0.9 -5.73,0.41 -3.86,-0.7 -8.96,-1.03 -3.28,-0.22 -4.85,0.56 -8.2,0.52l-5.83 2.56z"/>
   <polygon class="fil0" points="1810.1,761.68 1820.93,763.69 1823.84,751.28 1812.95,749.09 "/>
   <path class="fil0" d="M1950.94 860.5c0.44,3.61 2.43,5.92 4.32,9.21 4.4,-0.42 7.93,-2.94 10.9,-5.61l-4.41 -9.17c-4.45,1.14 -7.2,2.74 -10.81,5.57z"/>
   <path class="fil0" d="M1733.01 743.71l0.86 12.29 9.88 0.19 1.19 -5.91c0.02,-1.95 -0.46,-5.04 -0.74,-7.02l-11.19 0.45z"/>
   <path class="fil0" d="M1656.3 763.39c-0.48,2.85 2.17,7.69 3.32,11.45 2.8,-0.36 5.23,-0.92 6.98,-1.3 1.37,-1.43 -1.53,-0.65 2.82,-2.1l-0.86 -5.4 -0.89 -2.71 -1.04 -2.54 -5.58 0.72 -4.75 1.88z"/>
   <path class="fil0" d="M1889.2 786.04c0.61,2.29 1.37,2.15 -0.69,1.72l-3.07 3.14 -0.35 3.11 5.45 4.41 4.29 0.39c-0.5,-1.99 -0.97,-1.66 0.99,-1.35 0.63,-2.6 -0.07,-1.38 1.23,-3.48 1.05,-1.69 0.96,-0.94 1.92,-1.75l0.41 -4.01c-2.4,-0.79 -0.38,0.33 -2.64,-1.01 -1.68,-0.99 -1.05,-0.94 -1.79,-1.84l-3.88 -1.05 -1.87 1.72z"/>
   <path class="fil0" d="M1539.45 866.6c-0.41,4.13 0.08,1.54 -1.59,2.01 0.52,2.17 1.19,1.97 -0.79,1.6l-0.81 4.18c2.18,-0.56 1.99,-1.21 1.54,0.84 3.45,0.05 1.8,-0.66 1.93,1.6 2.26,-0.52 2.09,-1.26 1.73,0.73 2.27,-0.75 1.82,-1.3 1.82,0.95l3.26 1.07 3.26 -5.73c-0.26,-2.58 -1.1,-2.48 1.05,-1.84l-0.89 -2.96c-1.92,-0.26 -0.89,0.07 -2.81,-0.76 -0.16,-0.07 -0.54,-0.22 -0.66,-0.56 -0.11,-0.36 -0.37,-0.45 -0.57,-0.66l-5.98 -2.39 -0.49 1.92z"/>
   <path class="fil3" d="M1860.96 715.85c-4.95,1.34 -11.68,8.78 -13.6,13.98l-2.45 4.73c-2.16,-0.47 -1.45,-0.77 -1.45,1.69l-0.25 2.85c-2.46,0.43 -1.91,1.76 -2.24,4.72l-0.89 1.74c-1.27,4.22 -1.47,11.38 -0.21,15.71 0.75,2.6 0.9,2.09 1.12,2.54l1.08 2.62 1.13 2.47c1.74,4.4 0.43,3.27 4.07,4.68 -1.88,-4.07 -1.03,-2.87 -4.07,-4.68 0.11,-3.91 0.64,-2.11 -1.13,-2.47 0.46,-3.96 0.85,-2 -1.08,-2.62l-0.02 -19.99c1.47,-1.32 0.68,0.57 1.78,-2.07 0.95,-2.29 0.41,-2.06 0.46,-2.65 0.2,-0.23 0.56,-0.85 0.61,-0.68 0.06,0.17 0.45,-0.57 0.51,-0.76 0.79,-2.37 0.43,-0.82 0.58,-3.1 1.31,-0.76 0.89,0.29 1.82,-1.77 1.59,-3.51 0.31,-0.14 0.63,-2.96 5.72,-5.1 0.51,-2.83 11.86,-12.09 1.61,-1.31 0.71,-0.44 1.74,-1.89l5.83 -2.56c3.35,0.04 4.92,-0.74 8.2,-0.52 5.1,0.33 3.23,1.44 8.96,1.03 0.41,1.5 -1.45,1.23 2.61,0.9l3.9 3.25c-0.5,2.09 -0.79,1.57 1.36,1.03 -0.48,2.07 -0.83,1.62 1.26,1.14 -0.6,2.24 -1.18,2.01 1,1.39 -0.48,1.86 -0.82,1.4 1.11,1.29 0.35,3.95 -0.17,1.46 1.6,2 -0.43,5.19 -0.48,1.93 1.31,3.05 -0.03,-5.65 0.23,-2.15 -1.31,-3.05l-1.6 -2c0.62,-2.21 1.09,-1.87 -1.11,-1.29 0.43,-2.16 1.02,-1.96 -1,-1.39 0.68,-2.18 0.98,-1.69 -1.26,-1.14 0.48,-2.19 0.81,-1.71 -1.36,-1.03 -0.67,-1.34 0.26,-1.05 -1.43,-2.31 -0.43,-0.31 -0.96,-0.64 -2.47,-0.94 -1.15,-1.44 1.37,-2.14 -2.61,-0.9l-3.3 -1.51c-3.44,-1.02 -8.12,-1.62 -11.59,-0.44 -2.37,0.81 -1.16,0.4 -2.27,1.44 -4.02,-0.29 -4.01,-0.03 -5.83,2.56z"/>
   <path class="fil4" d="M1847.19 903.89l2.53 1.3c3.67,2.84 -0.19,-1.73 1.82,2.42l-4.45 0.5c-3.89,-0.13 -6.35,0.72 -10.01,1.74 -1.42,0.39 -3.66,0.86 -4.73,1.18l-4.15 2.2c-3.31,0.05 -4.2,0.19 -7.49,1.06 -3.73,0.98 -3.38,0.73 -5.46,2.82 3.15,-0.22 4.28,-0.42 7.3,-1.29 0.06,-0.01 2.16,-0.59 2.51,-0.73 3.58,-1.43 1.89,-0.74 3.14,-1.86 4.58,0.13 6.11,-0.38 10.45,-1.59 1.31,-0.36 3.08,-0.74 4.53,-1.23 4.5,-1.54 2.04,-0.35 3.91,-2.3l4.45 -0.5 4.49 -1.05c-0.61,-0.89 -0.11,-1.59 -2.94,-2.41 -3.05,-0.89 -3.28,-0.42 -5.9,-0.26 -1.84,-1.87 0.56,-0.87 -3.96,-2.3 -1.07,-0.34 -3.03,-0.71 -4.44,-1.05 -4.49,-1.1 -7.13,-1.93 -11.78,-2.51 3.9,3.64 14.49,5.91 20.18,5.86z"/>
   <path class="fil0" d="M1586.54 808.87c1.12,4.73 2.28,4.1 4.92,8.44 4.92,-1.34 3.3,-1.27 8.1,-4.3 -3.96,-8.45 -2.54,-4.03 -5.68,-9.33l-4.51 2.71c-1.38,0.98 -1.54,1.15 -2.83,2.48z"/>
   <path class="fil4" d="M1776.16 955.41c2.02,-1.91 1.15,-0.41 2.52,-3.37l6.97 -20.1c3.71,-9.31 6.07,-9.44 25.8,-12.83l1.22 -2.53c-2.47,0.27 -9.16,2.01 -12.84,2.95 -13.17,3.33 -11.6,0.6 -17.3,15.71 -0.11,0.3 -0.22,0.61 -0.33,0.9l-6.04 19.27z"/>
   <path class="fil3" d="M1552.26 801.94c-5.17,3.09 -4.66,3.81 -8.11,8.19l-5.2 5.65c-0.16,0.18 -0.39,0.45 -0.55,0.64l-5.01 5.44c-3.48,-1.32 -7.23,-4.33 -10.26,-7.97 0.08,-0.26 0.2,-0.96 0.26,-0.78l1.31 -2.07c1.32,-1.51 4.66,-3.81 7.44,-8.85 -4.41,2.55 -3.76,2.94 -6.03,5.52 -0.23,0.26 -0.95,0.99 -1.19,1.25l-3.39 4.8 7.08 7.07c0.2,0.15 0.47,0.37 0.68,0.52l4.05 2.22c0.95,-0.99 1.43,-1.5 2.55,-2.57l8.7 -9.24c0.16,-0.18 0.38,-0.45 0.53,-0.63l7.14 -9.19z"/>
   <path class="fil3" d="M2014.97 897.77l23 -8.24c2.47,2.4 3.4,6.52 3.73,9.33 -2.3,2.17 -8.26,2.96 -13.7,5.84l-1.72 1.25 17.35 -6.18 -3.86 -12.03 -7.94 2.66c-0.35,0.15 -1.34,0.57 -1.69,0.7l-9.66 3.41c-0.07,0.03 -2.54,0.92 -2.67,0.99 -3.29,1.71 -1.6,0.89 -2.84,2.27z"/>
   <path class="fil3" d="M1567.16 830.53l3.21 -2.56c2.19,-2.39 3.41,-5.73 7.33,-8.2 4.11,2.31 3.95,1.76 6.63,5.97 -1.91,4.3 -7.5,9.32 -11.88,13.93l-3.5 5.34 9.01 -9.37c2.83,-3.28 5.82,-6.06 8.15,-9.9 -2.43,-3.36 -5.24,-5.11 -8.41,-7.78l-8.93 9.66c-0.18,0.29 -0.36,0.63 -0.53,0.9l-1.08 2.01z"/>
   <path class="fil3" d="M1943.37 781c-4.02,2.65 -12.57,16.12 -13.79,20.19 5.75,-1.21 3.02,-0.59 6.54,-2.88 2.8,-1.81 3.57,-1.39 5.95,-4.54l-9.44 4.48 10.74 -17.25z"/>
   <path class="fil5" d="M1593.88 803.68c3.14,5.3 1.72,0.88 5.68,9.33 -4.8,3.03 -3.18,2.96 -8.1,4.3 -2.64,-4.34 -3.8,-3.71 -4.92,-8.44 1.29,-1.33 1.45,-1.5 2.83,-2.48l4.51 -2.71zm-9.25 5.28c0.12,0.32 0.28,0.47 0.35,0.95 0.07,0.48 0.27,0.73 0.38,0.92l6.72 8.04c3.58,-1.07 2.89,-0.95 4.93,-2.57 1.66,-1.32 2.41,-2.14 3.88,-3.74l-5.79 -8.94c-0.11,-0.15 -0.38,-0.52 -0.47,-0.63 -0.1,-0.12 -0.31,-0.43 -0.46,-0.64 -3.43,1.24 -0.79,-0.1 -3.56,1.47l-5.98 5.14z"/>
   <path class="fil3" d="M1539.45 866.6c-1.8,0.54 -1.49,-2.4 -1.59,2.01 -2.25,-0.54 -1.55,-0.71 -0.79,1.6 -0.31,0.17 -0.7,0.26 -0.73,0.75 -0.03,0.44 -0.5,0.61 -0.52,0.78 -0.31,2.73 -0.55,1.51 0.44,2.65 -0.83,2.3 -0.88,1.52 1.54,0.84 0.9,1.68 -2.17,1.19 1.93,1.6 -0.6,2.26 -0.69,1.44 1.73,0.73l1.82 0.95c0,-2.25 0.45,-1.7 -1.82,-0.95 0.36,-1.99 0.53,-1.25 -1.73,-0.73 -0.13,-2.26 1.52,-1.55 -1.93,-1.6 0.45,-2.05 0.64,-1.4 -1.54,-0.84l0.81 -4.18c1.98,0.37 1.31,0.57 0.79,-1.6 1.67,-0.47 1.18,2.12 1.59,-2.01l0.49 -1.92 5.98 2.39c0.2,0.21 0.46,0.3 0.57,0.66 0.12,0.34 0.5,0.49 0.66,0.56 1.92,0.83 0.89,0.5 2.81,0.76l0.89 2.96c-2.15,-0.64 -1.31,-0.74 -1.05,1.84 2.21,0 1.64,0.46 1.05,-1.84 1,-0.36 2.62,1.92 0.97,-1.61 -0.94,-1.99 0.57,-0.57 -1.86,-1.35 -1.94,-2.11 -0.83,-1.51 -4.04,-1.98 -0.04,-0.06 -0.33,-1.99 -2.34,-2.8 -7.82,-3.15 -2.13,-0.53 -3.64,0.41l-0.49 1.92z"/>
   <path class="fil3" d="M1889.2 786.04c-2.11,-0.37 -1.37,-0.55 -0.69,1.72 -2.33,1.26 -1.51,0.09 -3.07,3.14l3.07 -3.14c2.06,0.43 1.3,0.57 0.69,-1.72l1.87 -1.72 3.88 1.05c0.74,0.9 0.11,0.85 1.79,1.84 2.26,1.34 0.24,0.22 2.64,1.01l-0.41 4.01c-0.96,0.81 -0.87,0.06 -1.92,1.75 -1.3,2.1 -0.6,0.88 -1.23,3.48 -1.96,-0.31 -1.49,-0.64 -0.99,1.35l-4.29 -0.39c0,3.31 -0.5,1.45 2.28,1.19 0.25,-0.02 0.78,-0.14 1.04,-0.19 0.27,-0.05 0.71,-0.33 0.97,-0.61 2.32,0.81 1.73,1.01 0.99,-1.35 0.68,-0.64 0.91,-0.44 1.77,-1.85 0.86,-1.4 0.79,-1.57 1.38,-3.38 2.22,-1.51 0.69,2.61 2.04,-2.45 -1.69,-2.81 -2.46,-3.21 -6.06,-4.41 -0.94,-1.62 1.54,-0.97 -1.64,-2.01 -5.27,-1.72 -1.49,-0.12 -2.24,0.96 -2.06,0.34 -1.33,-1.41 -1.87,1.72z"/>
   <path class="fil3" d="M1656.3 763.39l4.75 -1.88 5.58 -0.72 1.04 2.54 0.89 2.71 0.86 5.4c-4.35,1.45 -1.45,0.67 -2.82,2.1l4.27 -0.66c-0.2,-3.77 0.81,-1.09 -0.52,-4.48 -1.82,-4.62 0.16,-0.46 -1.79,-2.36 0.95,-4.92 0.56,-1.98 -0.89,-2.71 0.38,-4.99 0.25,-1.78 -1.04,-2.54 -1.28,-2.14 1.23,-1.74 -2.65,-1.28 -4.45,0.52 -2.77,1.78 -2.93,2 -4.45,-1 -0.43,-0.65 -2.35,0.22 -2.1,0.94 -1.28,0.45 -2.4,1.66z"/>
  </g>
 </g>
</svg>
